<svg width="20" height="30" fill="none" xmlns="http://www.w3.org/2000/svg"><g clip-path="url(#clip0)"><path d="M5 30c2.76 0 5-2.24 5-5v-5H5a5.001 5.001 0 00-4.998 5c0 2.76 2.24 5 4.999 5z" fill="#0ACF83"/><path d="M.002 15c0-2.76 2.24-5 4.999-5H10v10H5a5.001 5.001 0 01-4.998-5z" fill="#A259FF"/><path d="M.01 5c0-2.76 2.24-5 4.999-5h4.999v10h-5A5.001 5.001 0 01.01 5z" fill="#F24E1E"/><path d="M10 0h4.999a5.001 5.001 0 010 10H10V0z" fill="#FF7262"/><path d="M19.998 15c0 2.76-2.24 5-4.999 5A5.001 5.001 0 0110 15c0-2.76 2.24-5 4.999-5 2.76 0 4.999 2.24 4.999 5z" fill="#1ABCFE"/></g><defs><clipPath id="clip0"><path fill="#fff" d="M0 0h20v30H0z"/></clipPath></defs></svg>