<svg width="25" height="25" fill="none" xmlns="http://www.w3.org/2000/svg"><path d="M25 25H0V0h25v25z" fill="#00C3FF"/><path d="M25 25H12.5V0H25v25z" fill="#00C3FF"/><path d="M23.535 23.535H1.465V1.465h22.07v22.07z" fill="#063E8B"/><path d="M23.535 23.535H12.5V1.465h11.035v22.07z" fill="#063E8B"/><path d="M12.5 21.991a2.183 2.183 0 01-1.554-.643l-7.293-7.294a2.183 2.183 0 01-.644-1.554c0-.587.229-1.139.644-1.554l7.293-7.293a2.183 2.183 0 011.554-.644c.587 0 1.139.229 1.554.644l7.293 7.293c.415.415.644.967.644 1.554 0 .587-.229 1.139-.643 1.554l-7.294 7.293a2.183 2.183 0 01-1.554.644zm0-17.517a.728.728 0 00-.518.214l-7.294 7.294a.728.728 0 00-.214.518c0 .196.076.38.214.518l7.294 7.294a.728.728 0 00.518.214c.196 0 .38-.076.518-.214l7.294-7.294a.728.728 0 00.214-.518.728.728 0 00-.214-.518l-7.294-7.294a.728.728 0 00-.518-.214z" fill="#CCEFFF"/><path d="M21.347 10.946l-7.293-7.293a2.183 2.183 0 00-1.554-.644v1.465c.196 0 .38.076.518.214l7.294 7.294a.728.728 0 01.214.518c0 .196-.076.38-.214.518l-7.294 7.294a.728.728 0 01-.518.214v1.465c.587 0 1.139-.229 1.554-.643l7.293-7.294c.415-.415.644-.967.644-1.554 0-.587-.229-1.139-.644-1.554z" fill="#CCEFFF"/><path d="M15.089 15.215c-.945 0-1.617-.43-1.852-.633l.39-.656c.25.177.826.539 1.438.539.397 0 .672-.166.672-.453 0-.352-.58-.466-.898-.555-.266-.073-1.461-.24-1.461-1.14 0-.867.754-1.352 1.61-1.352.897 0 1.377.364 1.6.562l-.421.633c-.208-.156-.672-.453-1.188-.453-.38 0-.624.162-.624.461 0 .373.653.48.804.516.281.073 1.586.272 1.586 1.234 0 1.137-1.146 1.297-1.656 1.297zm-6.313-.078V9.59h2.352c1.076 0 1.766.99 1.766 1.844 0 1.006-.766 1.843-1.727 1.843H9.854v1.86H8.776zm1.078-2.805h1.25c.379 0 .696-.353.696-.898 0-.47-.285-.899-.742-.899H9.854v1.797z" fill="#00C3FF"/><path d="M12.5 10.298v2.306a1.92 1.92 0 00.394-1.17c0-.386-.141-.798-.394-1.136z" fill="#00C3FF"/></svg>