<svg width="20" height="30" viewBox="0 0 20 30" fill="none" xmlns="http://www.w3.org/2000/svg">
<g clip-path="url(#clip0)">
<path d="M5.00095 30C7.7604 30 9.99995 27.76 9.99995 25V20H5.00095C2.2415 20 0.00195312 22.24 0.00195312 25C0.00195312 27.76 2.2415 30 5.00095 30Z" fill="#0ACF83"/>
<path d="M0.00195312 15C0.00195312 12.24 2.2415 10 5.00095 10H9.99995V20H5.00095C2.2415 20 0.00195312 17.76 0.00195312 15Z" fill="#A259FF"/>
<path d="M0.0098877 5C0.0098877 2.24 2.24944 0 5.00889 0H10.0079V10H5.00889C2.24944 10 0.0098877 7.76 0.0098877 5Z" fill="#F24E1E"/>
<path d="M10 0H14.999C17.7584 0 19.998 2.24 19.998 5C19.998 7.76 17.7584 10 14.999 10H10V0Z" fill="#FF7262"/>
<path d="M19.998 15C19.998 17.76 17.7584 20 14.999 20C12.2396 20 10 17.76 10 15C10 12.24 12.2396 10 14.999 10C17.7584 10 19.998 12.24 19.998 15Z" fill="#1ABCFE"/>
</g>
<defs>
<clipPath id="clip0">
<rect width="20" height="30" fill="white"/>
</clipPath>
</defs>
</svg>
