<svg width="25" height="25" viewBox="0 0 25 25" fill="none" xmlns="http://www.w3.org/2000/svg">
<path d="M25 25H0V0H25V25Z" fill="#00C3FF"/>
<path d="M25 25H12.5V0H25V25Z" fill="#00C3FF"/>
<path d="M23.5352 23.5352H1.46484V1.46484H23.5352V23.5352Z" fill="#063E8B"/>
<path d="M23.5352 23.5352H12.5V1.46484H23.5352V23.5352Z" fill="#063E8B"/>
<path d="M12.5001 21.9911C11.9131 21.9911 11.3613 21.7625 10.9463 21.3475L3.65264 14.0538C3.2376 13.6388 3.00903 13.087 3.00903 12.5C3.00903 11.9131 3.2376 11.3613 3.65264 10.9463L10.9463 3.65264C11.3613 3.2376 11.9131 3.00903 12.5001 3.00903C13.087 3.00903 13.6388 3.2376 14.0538 3.65264L21.3475 10.9463C21.7625 11.3613 21.9911 11.9131 21.9911 12.5C21.9911 13.087 21.7625 13.6388 21.3475 14.0538L14.0538 21.3475C13.6388 21.7625 13.087 21.9911 12.5001 21.9911ZM12.5001 4.47388C12.3044 4.47388 12.1205 4.5501 11.9821 4.68843L4.68843 11.9821C4.5501 12.1205 4.47388 12.3044 4.47388 12.5C4.47388 12.6957 4.5501 12.8796 4.68843 13.018L11.9821 20.3117C12.1205 20.45 12.3044 20.5262 12.5001 20.5262C12.6957 20.5262 12.8796 20.45 13.018 20.3117L20.3117 13.018C20.45 12.8796 20.5262 12.6957 20.5262 12.5C20.5262 12.3044 20.45 12.1205 20.3117 11.9821L13.018 4.68843C12.8796 4.5501 12.6957 4.47388 12.5001 4.47388Z" fill="#CCEFFF"/>
<path d="M21.3474 10.9463L14.0537 3.65264C13.6387 3.2376 13.0869 3.00903 12.5 3.00903V4.47388C12.6957 4.47388 12.8795 4.5501 13.0179 4.68843L20.3116 11.9821C20.45 12.1205 20.5262 12.3044 20.5262 12.5C20.5262 12.6957 20.45 12.8796 20.3116 13.018L13.0179 20.3117C12.8796 20.45 12.6957 20.5262 12.5 20.5262V21.9911C13.0869 21.9911 13.6387 21.7625 14.0537 21.3475L21.3474 14.0538C21.7625 13.6388 21.991 13.087 21.991 12.5C21.991 11.9131 21.7625 11.3613 21.3474 10.9463Z" fill="#CCEFFF"/>
<path d="M15.0889 15.2148C14.1439 15.2148 13.4717 14.7852 13.2373 14.582L13.6279 13.9258C13.8779 14.1029 14.4532 14.4648 15.0654 14.4648C15.4623 14.4648 15.7373 14.2985 15.7373 14.0117C15.7373 13.6597 15.1565 13.5457 14.8389 13.457C14.5732 13.3841 13.3779 13.2162 13.3779 12.3164C13.3779 11.4502 14.1317 10.9648 14.9873 10.9648C15.8854 10.9648 16.3649 11.3295 16.5889 11.5273L16.167 12.1602C15.9586 12.0039 15.4948 11.707 14.9795 11.707C14.5997 11.707 14.3545 11.8693 14.3545 12.168C14.3545 12.5407 15.0081 12.6472 15.1592 12.6836C15.4404 12.7566 16.7451 12.9557 16.7451 13.918C16.7451 15.0553 15.5993 15.2148 15.0889 15.2148Z" fill="#00C3FF"/>
<path d="M8.77637 15.1367V9.58984H11.1279C12.2042 9.58984 12.8936 10.5794 12.8936 11.4336C12.8936 12.4403 12.1283 13.2773 11.167 13.2773H9.85449V15.1367H8.77637ZM9.85449 12.332H11.1045C11.4827 12.332 11.7998 11.9792 11.7998 11.4336C11.7998 10.9648 11.5152 10.5352 11.0576 10.5352H9.85449V12.332Z" fill="#00C3FF"/>
<path d="M12.5 10.2983V12.6039C12.7464 12.284 12.8937 11.8751 12.8937 11.4336C12.8937 11.0482 12.7529 10.6355 12.5 10.2983Z" fill="#00C3FF"/>
</svg>
