<svg width="19" height="18" viewBox="0 0 19 18" fill="none" xmlns="http://www.w3.org/2000/svg">
<path d="M17.7433 12.38C16.5133 12.38 15.3233 12.18 14.2133 11.82C13.8633 11.7 13.4733 11.79 13.2033 12.06L11.6333 14.03C8.80328 12.68 6.15328 10.13 4.74328 7.2L6.69328 5.54C6.96328 5.26 7.04328 4.87 6.93328 4.52C6.56328 3.41 6.37328 2.22 6.37328 0.99C6.37328 0.45 5.92328 0 5.38328 0H1.92328C1.38328 0 0.733276 0.24 0.733276 0.99C0.733276 10.28 8.46328 18 17.7433 18C18.4533 18 18.7333 17.37 18.7333 16.82V13.37C18.7333 12.83 18.2833 12.38 17.7433 12.38Z" fill="white"/>
</svg>
