<svg width="24" height="24" viewBox="0 0 24 24" fill="none" xmlns="http://www.w3.org/2000/svg">
<path d="M19.852 3.88125C17.6864 1.71094 14.7989 0.515625 11.7333 0.515625C8.66765 0.515625 5.78015 1.71094 3.61453 3.88125C1.4489 6.05156 0.248901 8.93437 0.248901 12C0.248901 15.0656 1.44421 17.9531 3.61453 20.1188C5.78484 22.2844 8.66765 23.4844 11.7333 23.4844C14.7989 23.4844 17.6864 22.2891 19.852 20.1188C22.0177 17.9484 23.2177 15.0656 23.2177 12C23.2177 8.93437 22.0223 6.04688 19.852 3.88125ZM22.177 11.4844H17.7239C17.6817 9.7125 17.4333 8.00625 16.9973 6.49219C17.8458 6.05625 18.638 5.50781 19.3645 4.86094C21.0051 6.61406 22.0505 8.92969 22.177 11.4844ZM12.2489 12.5156H16.6973C16.6598 14.1469 16.4348 15.7078 16.0458 17.1047C14.8458 16.6219 13.5661 16.3406 12.2489 16.2797V12.5156ZM18.6239 4.14375C18.0239 4.67344 17.3677 5.12344 16.6739 5.49844C16.4958 5.00156 16.2942 4.53281 16.0692 4.09219C15.6239 3.21094 15.1177 2.48906 14.5598 1.93594C16.0833 2.3625 17.4661 3.12656 18.6239 4.14375ZM12.2489 1.70625C13.3223 1.94531 14.3348 2.93437 15.1505 4.54688C15.3708 4.98281 15.5677 5.44687 15.7411 5.93906C14.6395 6.39375 13.463 6.66094 12.2489 6.72187V1.70625ZM16.0505 6.92813C16.4348 8.31563 16.6552 9.86719 16.6926 11.4891H12.2489V7.75781C13.5708 7.69688 14.8505 7.41094 16.0505 6.92813ZM11.2177 11.4844H6.76921C6.80671 9.8625 7.02703 8.31094 7.4114 6.92344C8.6114 7.41094 9.89578 7.69219 11.213 7.74844V11.4844H11.2177ZM11.2223 1.70625V6.72187C10.0083 6.66094 8.82703 6.39375 7.73015 5.93906C7.90359 5.44687 8.10046 4.98281 8.32078 4.54688C9.1364 2.93437 10.1489 1.94531 11.2223 1.70625ZM8.9114 1.93594C8.35359 2.48906 7.84734 3.21563 7.40203 4.09219C7.18171 4.53281 6.98015 5.00156 6.79734 5.49844C6.10359 5.12344 5.45203 4.67344 4.84734 4.14375C6.00515 3.12656 7.38796 2.3625 8.9114 1.93594ZM4.10671 4.86094C4.83328 5.50781 5.62546 6.05156 6.4739 6.49219C6.03796 8.01094 5.78484 9.7125 5.74734 11.4844H1.29421C1.42078 8.92969 2.46609 6.61406 4.10671 4.86094ZM1.29421 12.5156H5.74734C5.78953 14.3016 6.04265 16.0125 6.48328 17.5359C5.63953 17.9719 4.84734 18.5109 4.12546 19.1578C2.47078 17.4 1.42078 15.0797 1.29421 12.5156ZM4.86609 19.875C5.46609 19.35 6.11765 18.9 6.80671 18.5297C6.98484 19.0125 7.18171 19.4766 7.40203 19.9078C7.84734 20.7891 8.35359 21.5109 8.9114 22.0687C7.39734 21.6422 6.01921 20.8828 4.86609 19.875ZM11.2223 22.2938C10.1489 22.0547 9.1364 21.0656 8.32078 19.4531C8.10515 19.0266 7.91296 18.5719 7.73953 18.0891C8.8364 17.6344 10.013 17.3672 11.2223 17.3109V22.2938ZM7.42546 17.1047C7.0364 15.7078 6.8114 14.1469 6.7739 12.5156H11.2223V16.2797C9.90515 16.3359 8.62546 16.6172 7.42546 17.1047ZM12.2536 22.2938V17.3109C13.463 17.3719 14.6395 17.6344 15.7364 18.0891C15.563 18.5719 15.3708 19.0266 15.1552 19.4531C14.3395 21.0656 13.327 22.0547 12.2536 22.2938ZM14.5645 22.0641C15.1223 21.5109 15.6286 20.7844 16.0739 19.9031C16.2942 19.4719 16.4911 19.0078 16.6692 18.525C17.3583 18.8953 18.0098 19.3453 18.6098 19.8703C17.4567 20.8828 16.0786 21.6422 14.5645 22.0641ZM19.3552 19.1578C18.6333 18.5156 17.8411 17.9719 16.9973 17.5359C17.438 16.0125 17.6911 14.2969 17.7333 12.5156H22.1864C22.0552 15.0797 21.0052 17.4 19.3552 19.1578Z" fill="white"/>
</svg>
